<?xml version="1.0" standalone="no"?>
<!DOCTYPE svg PUBLIC "-//W3C//DTD SVG 1.1//EN"
 "http://www.w3.org/Graphics/SVG/1.1/DTD/svg11.dtd">
<!-- Created with svg_stack (http://github.com/astraw/svg_stack) -->
<svg xmlns:sodipodi="http://sodipodi.sourceforge.net/DTD/sodipodi-0.dtd" xmlns="http://www.w3.org/2000/svg" version="1.1" width="40.0" height="60.0">
  <defs/>
  <g id="id0:id0" transform="matrix(1.25,0,0,1.25,0.0,0.0)"><g transform="translate(0.000000,48.000000) scale(0.040000,-0.040000)" fill="#ffffff" stroke="none">
<path d="M243 843 c-15 -6 -17 -33 -3 -33 6 0 10 -7 10 -15 0 -8 5 -15 10 -15 6 0 10 -7 10 -15 0 -8 5 -15 10 -15 6 0 10 -6 10 -14 0 -8 4 -16 8 -18 5 -1 23 -24 40 -50 32 -47 40 -82 22 -93 -5 -3 -10 -12 -10 -18 0 -13 39 33 40 46 0 5 -14 29 -31 53 -17 25 -29 47 -26 50 2 2 20 -19 39 -48 l35 -53 -28 -44 c-32 -50 -45 -64 -36 -38 11 29 -11 19 -25 -13 -7 -16 -16 -30 -20 -30 -5 0 -8 -7 -8 -15 0 -8 -4 -15 -10 -15 -5 0 -10 -5 -10 -11 0 -6 -9 -23 -19 -38 -17 -23 -17 -29 -5 -45 13 -19 14 -19 20 0 4 10 21 38 37 62 16 24 27 46 24 48 -3 3 -15 -11 -27 -31 -12 -20 -24 -34 -27 -32 -5 5 56 107 64 107 3 0 3 -7 -1 -15 -11 -29 12 -15 26 15 7 17 16 30 20 30 5 0 8 6 8 14 0 8 5 16 11 18 15 5 15 61 0 66 -6 2 -11 10 -11 18 0 8 -4 14 -10 14 -5 0 -10 6 -10 14 0 8 -4 16 -8 18 -5 2 -31 36 -57 76 -26 39 -48 72 -49 71 -1 0 -7 -3 -13 -6z m51 -69 c21 -31 35 -58 33 -61 -5 -4 -77 101 -77 112 0 12 10 1 44 -51z m-32 -396 c-7 -7 -12 -8 -12 -2 0 14 12 26 19 19 2 -3 -1 -11 -7 -17z"/>
<path d="M430 360 c0 -16 5 -30 10 -30 6 0 10 14 10 30 0 17 -4 30 -10 30 -5 0 -10 -13 -10 -30z"/>
<path d="M460 380 c0 -5 18 -10 40 -10 22 0 40 5 40 10 0 6 -18 10 -40 10 -22 0 -40 -4 -40 -10z"/>
<path d="M550 360 c0 -16 5 -30 10 -30 6 0 10 14 10 30 0 17 -4 30 -10 30 -5 0 -10 -13 -10 -30z"/>
<path d="M460 340 c0 -5 18 -10 40 -10 22 0 40 5 40 10 0 6 -18 10 -40 10 -22 0 -40 -4 -40 -10z"/>
</g>
</g>
  <g id="id1:id1" transform="matrix(1.25,0,0,1.25,0.0,0.0)"><g transform="translate(0.000000,48.000000) scale(0.040000,-0.040000)" fill="#f9fbfc" stroke="none">
<path d="M260 810 c6 -11 8 -25 5 -30 -4 -6 -1 -9 7 -8 7 2 12 -5 12 -14 -1 -10 4 -14 12 -11 10 4 7 14 -13 44 -27 41 -41 53 -23 19z"/>
<path d="M303 725 c0 -8 5 -13 10 -12 5 1 12 -4 15 -12 3 -9 0 -11 -8 -6 -9 5 -11 4 -6 -4 4 -6 11 -9 15 -6 9 5 61 -67 61 -83 0 -5 -11 -21 -25 -36 -13 -14 -22 -26 -19 -26 3 0 -3 -13 -12 -29 -10 -17 -21 -28 -26 -25 -5 3 -8 2 -7 -3 4 -21 -2 -34 -13 -27 -7 4 -8 3 -4 -5 4 -6 -3 -25 -14 -42 -12 -16 -20 -32 -17 -35 2 -3 19 18 37 46 18 27 36 50 42 50 5 0 7 4 4 8 -6 10 28 64 36 56 3 -3 5 3 5 13 -1 10 3 17 9 16 7 -1 11 5 10 15 0 9 4 16 10 15 6 -1 11 4 11 12 0 8 -5 13 -11 12 -6 -1 -10 6 -10 15 1 10 -3 16 -10 15 -6 -1 -10 6 -10 15 1 10 -3 16 -10 15 -6 -1 -10 6 -10 15 1 10 -3 16 -8 15 -6 -1 -13 4 -16 12 -3 9 0 11 9 6 8 -5 11 -4 6 0 -13 15 -44 15 -44 0z"/>
<path d="M453 360 c0 -19 2 -29 5 -22 2 7 20 12 42 12 22 0 40 -5 43 -12 2 -7 4 3 4 22 0 19 -2 29 -4 23 -3 -8 -21 -13 -43 -13 -22 0 -40 5 -42 13 -3 6 -5 -4 -5 -23z"/>
</g>
</g>
  <g id="id2:id2" transform="matrix(1.25,0,0,1.25,0.0,0.0)"><g transform="translate(0.000000,48.000000) scale(0.040000,-0.040000)" fill="#eff6f9" stroke="none">
</g>
</g>
  <g id="id3:id3" transform="matrix(1.25,0,0,1.25,0.0,0.0)"><g transform="translate(0.000000,48.000000) scale(0.040000,-0.040000)" fill="#deeaf1" stroke="none">
<path d="M424 361 c0 -21 7 -36 16 -38 10 -3 11 -2 3 4 -6 4 -13 22 -16 38 -4 27 -5 27 -3 -4z"/>
<path d="M571 363 c0 -17 -7 -34 -13 -36 -10 -4 -10 -6 0 -6 16 -1 25 21 19 51 -3 18 -5 16 -6 -9z"/>
<path d="M478 323 c12 -2 30 -2 40 0 9 3 -1 5 -23 4 -22 0 -30 -2 -17 -4z"/>
</g>
</g>
  <g id="id4:id4" transform="matrix(1.25,0,0,1.25,0.0,0.0)"><g transform="translate(0.000000,48.000000) scale(0.040000,-0.040000)" fill="#cbdee8" stroke="none">
<path d="M361 604 c0 -11 3 -14 6 -6 3 7 2 16 -1 19 -3 4 -6 -2 -5 -13z"/>
</g>
</g>
  <g id="id5:id5" transform="matrix(1.25,0,0,1.25,0.0,0.0)"><g transform="translate(0.000000,48.000000) scale(0.040000,-0.040000)" fill="#b3cedd" stroke="none">
<path d="M478 393 c18 -2 45 -2 60 0 15 2 0 4 -33 4 -33 0 -45 -2 -27 -4z"/>
</g>
</g>
  <g id="id6:id6" transform="matrix(1.25,0,0,1.25,0.0,0.0)"><g transform="translate(0.000000,48.000000) scale(0.040000,-0.040000)" fill="#88b2ca" stroke="none">
<path d="M426 617 c3 -10 9 -15 12 -12 3 3 0 11 -7 18 -10 9 -11 8 -5 -6z"/>
<path d="M582 360 c0 -19 2 -27 5 -17 2 9 2 25 0 35 -3 9 -5 1 -5 -18z"/>
</g>
</g>
  <g id="id7:id7" transform="matrix(1.25,0,0,1.25,0.0,0.0)"><g transform="translate(0.000000,48.000000) scale(0.040000,-0.040000)" fill="#6ea1bd" stroke="none">
<path d="M240 876 c0 -2 7 -7 16 -10 8 -3 12 -2 9 4 -6 10 -25 14 -25 6z"/>
<path d="M412 360 c0 -19 2 -27 5 -17 2 9 2 25 0 35 -3 9 -5 1 -5 -18z"/>
</g>
</g>
  <g id="id8:id8" transform="matrix(1.25,0,0,1.25,0.0,0.0)"><g transform="translate(0.000000,48.000000) scale(0.040000,-0.040000)" fill="#5b94b5" stroke="none">
<path d="M478 313 c18 -2 45 -2 60 0 15 2 0 4 -33 4 -33 0 -45 -2 -27 -4z"/>
</g>
</g>
  <g id="id9:id9" transform="matrix(1.25,0,0,1.25,0.0,0.0)"><g transform="translate(0.000000,48.000000) scale(0.040000,-0.040000)" fill="#3e7fa6" stroke="none">
<path d="M458 403 c23 -2 61 -2 85 0 23 2 4 4 -43 4 -47 0 -66 -2 -42 -4z"/>
<path d="M211 374 c0 -11 3 -14 6 -6 3 7 2 16 -1 19 -3 4 -6 -2 -5 -13z"/>
<path d="M592 360 c0 -19 2 -27 5 -17 2 9 2 25 0 35 -3 9 -5 1 -5 -18z"/>
</g>
</g>
  <g id="id10:id10" transform="matrix(1.25,0,0,1.25,0.0,0.0)"><g transform="translate(0.000000,48.000000) scale(0.040000,-0.040000)" fill="#29709c" stroke="none">
</g>
</g>
  <g id="id11:id11" transform="matrix(1.25,0,0,1.25,0.0,0.0)"><g transform="translate(0.000000,48.000000) scale(0.040000,-0.040000)" fill="#1a6393" stroke="none">
<path d="M405 399 c-4 -6 -5 -12 -2 -15 2 -3 7 2 10 11 7 17 1 20 -8 4z"/>
<path d="M237 319 c7 -7 15 -10 18 -7 3 3 -2 9 -12 12 -14 6 -15 5 -6 -5z"/>
</g>
</g>
  <g id="id12:id12" transform="matrix(1.25,0,0,1.25,0.0,0.0)"><g transform="translate(0.000000,48.000000) scale(0.040000,-0.040000)" fill="#065d8f" stroke="none">
<path d="M311 854 c0 -11 3 -14 6 -6 3 7 2 16 -1 19 -3 4 -6 -2 -5 -13z"/>
<path d="M331 824 c0 -11 3 -14 6 -6 3 7 2 16 -1 19 -3 4 -6 -2 -5 -13z"/>
<path d="M181 794 c0 -11 3 -14 6 -6 3 7 2 16 -1 19 -3 4 -6 -2 -5 -13z"/>
<path d="M371 764 c0 -11 3 -14 6 -6 3 7 2 16 -1 19 -3 4 -6 -2 -5 -13z"/>
<path d="M472 605 c0 -16 2 -22 5 -12 2 9 2 23 0 30 -3 6 -5 -1 -5 -18z"/>
<path d="M301 584 c0 -11 3 -14 6 -6 3 7 2 16 -1 19 -3 4 -6 -2 -5 -13z"/>
<path d="M281 554 c0 -11 3 -14 6 -6 3 7 2 16 -1 19 -3 4 -6 -2 -5 -13z"/>
<path d="M431 524 c0 -11 3 -14 6 -6 3 7 2 16 -1 19 -3 4 -6 -2 -5 -13z"/>
<path d="M241 494 c0 -11 3 -14 6 -6 3 7 2 16 -1 19 -3 4 -6 -2 -5 -13z"/>
<path d="M391 464 c0 -11 3 -14 6 -6 3 7 2 16 -1 19 -3 4 -6 -2 -5 -13z"/>
<path d="M371 434 c0 -11 3 -14 6 -6 3 7 2 16 -1 19 -3 4 -6 -2 -5 -13z"/>
<path d="M356 375 c4 -27 8 -52 10 -54 9 -10 3 75 -6 89 -7 10 -8 -1 -4 -35z"/>
<path d="M181 394 c0 -11 3 -14 6 -6 3 7 2 16 -1 19 -3 4 -6 -2 -5 -13z"/>
<path d="M633 360 c0 -25 2 -35 4 -22 2 12 2 32 0 45 -2 12 -4 2 -4 -23z"/>
<path d="M331 374 c0 -11 3 -14 6 -6 3 7 2 16 -1 19 -3 4 -6 -2 -5 -13z"/>
<path d="M181 354 c0 -11 3 -14 6 -6 3 7 2 16 -1 19 -3 4 -6 -2 -5 -13z"/>
<path d="M463 303 c9 -2 25 -2 35 0 9 3 1 5 -18 5 -19 0 -27 -2 -17 -5z"/>
<path d="M248 283 c7 -3 16 -2 19 1 4 3 -2 6 -13 5 -11 0 -14 -3 -6 -6z"/>
<path d="M458 263 c23 -2 61 -2 85 0 23 2 4 4 -43 4 -47 0 -66 -2 -42 -4z"/>
</g>
</g>
  <g id="id13:id13" transform="matrix(1.25,0,0,1.25,0.0,0.0)"><g transform="translate(0.000000,48.000000) scale(0.040000,-0.040000)" fill="#00598c" stroke="none">
<path d="M0 600 l0 -600 400 0 400 0 0 600 0 600 -400 0 -400 0 0 -600z m277 290 c13 -17 29 -28 34 -24 5 3 9 -4 9 -16 0 -12 4 -18 10 -15 6 3 10 -3 10 -15 0 -12 4 -18 11 -15 6 4 9 0 7 -11 -2 -11 2 -18 10 -16 6 1 12 -7 12 -19 0 -12 4 -17 11 -14 6 4 9 0 7 -11 -2 -12 2 -18 11 -16 8 2 11 -3 8 -13 -4 -9 -1 -15 9 -15 10 0 14 -6 10 -15 -3 -9 0 -15 9 -15 8 0 15 -7 15 -15 0 -8 5 -15 10 -15 6 0 10 -11 10 -25 0 -15 -6 -25 -15 -25 -9 0 -12 -6 -9 -15 4 -9 0 -15 -9 -15 -11 0 -13 -6 -9 -22 3 -14 2 -19 -6 -14 -7 4 -12 1 -12 -8 0 -9 -4 -16 -10 -16 -5 0 -10 -9 -10 -21 0 -11 -4 -17 -10 -14 -5 3 -10 -3 -10 -15 0 -12 -4 -18 -10 -15 -7 4 -8 -8 -4 -37 8 -51 14 -62 14 -25 0 50 30 67 120 67 67 0 83 -3 100 -20 12 -12 25 -18 30 -15 6 4 10 -11 10 -34 0 -23 -4 -42 -10 -42 -5 -1 -14 -2 -20 -3 -5 0 -15 -9 -22 -19 -11 -15 -26 -17 -93 -15 -46 2 -79 7 -78 13 2 10 -35 30 -49 27 -5 -1 -8 13 -8 32 0 19 -4 38 -10 41 -5 3 -10 -3 -10 -14 0 -12 -6 -20 -12 -19 -7 2 -12 -5 -10 -14 2 -12 -6 -20 -23 -24 -16 -4 -25 -13 -25 -25 0 -10 -7 -19 -15 -19 -9 0 -15 9 -15 23 0 13 -3 17 -8 11 -5 -9 -10 -8 -20 2 -7 7 -13 17 -13 21 -1 5 -5 7 -9 6 -4 -1 -8 13 -8 32 0 20 5 33 12 32 6 -1 10 6 8 16 -2 10 3 16 10 15 8 -2 12 4 10 15 -2 9 3 17 12 17 9 0 13 8 10 23 -2 12 -2 16 2 9 8 -17 24 -5 17 13 -3 8 0 15 6 15 6 0 11 9 11 21 0 11 5 17 10 14 6 -3 10 3 10 14 0 12 3 20 8 18 4 -1 7 3 7 8 0 6 -4 9 -8 7 -4 -1 -7 6 -5 15 2 11 -2 17 -10 15 -7 -1 -12 5 -10 15 2 11 -2 17 -10 15 -7 -1 -12 5 -10 15 2 11 -2 17 -11 15 -8 -2 -11 3 -8 13 4 9 1 15 -9 15 -9 0 -14 7 -12 18 2 9 -3 16 -9 15 -7 -2 -13 4 -13 13 0 8 -4 13 -9 9 -6 -3 -9 11 -8 32 2 40 41 94 50 70 3 -7 6 -2 6 11 1 29 7 28 38 -8z m266 -627 c-24 -2 -62 -2 -85 0 -24 2 -5 4 42 4 47 0 66 -2 43 -4z"/>
</g>
</g>
  <g id="id14:id14" transform="matrix(1.25,0,0,1.25,0.0,0.0)"><g transform="translate(0.000000,48.000000) scale(0.040000,-0.040000)" fill="#015187" stroke="none">
<path d="M240 900 c0 -5 3 -9 8 -7 4 1 17 -8 30 -20 12 -13 22 -27 22 -33 0 -5 5 -10 10 -10 6 0 10 -7 10 -15 0 -8 5 -15 10 -15 6 0 10 -7 10 -15 0 -8 5 -15 11 -15 5 0 7 -5 4 -10 -3 -6 1 -13 9 -16 9 -3 14 -10 11 -14 -3 -5 -1 -11 5 -15 21 -13 9 18 -31 78 -62 93 -109 139 -109 107z"/>
<path d="M205 870 c-21 -24 -23 -66 -2 -87 11 -12 16 -12 22 -2 5 7 4 10 -2 6 -6 -4 -13 7 -17 24 -8 43 -8 49 5 47 6 -2 13 5 14 15 4 22 2 21 -20 -3z"/>
<path d="M230 751 c0 -25 6 -27 13 -6 4 8 2 17 -3 20 -6 4 -10 -3 -10 -14z"/>
<path d="M250 728 c1 -21 27 -51 35 -39 3 6 -1 14 -9 17 -9 3 -14 10 -11 14 3 5 1 11 -5 15 -5 3 -10 0 -10 -7z"/>
<path d="M395 701 c-3 -5 -1 -12 5 -16 5 -3 10 1 10 9 0 18 -6 21 -15 7z"/>
<path d="M417 675 c-4 -8 -2 -17 3 -20 6 -4 10 3 10 14 0 25 -6 27 -13 6z"/>
<path d="M290 668 c0 -7 9 -24 19 -38 19 -24 19 -24 -11 -67 -16 -24 -27 -51 -25 -61 3 -12 5 -10 6 6 0 13 6 20 11 17 6 -3 10 3 10 14 0 12 5 21 10 21 6 0 10 5 10 11 0 7 8 18 18 25 16 12 16 13 0 19 -10 4 -18 13 -18 21 0 8 -5 14 -11 14 -5 0 -8 4 -4 9 3 5 1 12 -5 16 -5 3 -10 0 -10 -7z"/>
<path d="M440 652 c0 -7 6 -21 12 -32 10 -16 10 -22 -5 -32 -12 -9 -14 -17 -7 -28 8 -13 10 -12 10 3 0 9 5 17 10 17 15 0 11 42 -5 64 -8 11 -15 14 -15 8z"/>
<path d="M418 555 c-4 -4 -4 -14 -1 -23 4 -10 2 -13 -5 -8 -8 5 -12 0 -12 -14 0 -12 -4 -18 -10 -15 -5 3 -10 -3 -10 -14 0 -12 -4 -21 -10 -21 -5 0 -10 -7 -10 -15 0 -8 -4 -15 -10 -15 -5 0 -10 -6 -10 -14 0 -8 -7 -17 -16 -20 -8 -3 -13 -10 -10 -15 3 -5 -1 -11 -9 -15 -9 -3 -12 -12 -8 -22 4 -12 3 -15 -5 -10 -7 4 -12 2 -12 -3 0 -18 20 -12 27 7 4 9 33 57 65 105 33 48 58 95 56 103 -2 9 -6 13 -10 9z"/>
<path d="M250 474 c0 -8 5 -12 10 -9 6 4 8 11 5 16 -9 14 -15 11 -15 -7z"/>
<path d="M224 445 c-11 -22 -10 -24 7 -15 10 6 16 17 13 25 -8 19 -7 19 -20 -10z"/>
<path d="M410 420 c0 -6 37 -10 90 -10 53 0 90 4 90 10 0 6 -37 10 -90 10 -53 0 -90 -4 -90 -10z"/>
<path d="M197 403 c-13 -12 -7 -48 13 -73 19 -24 19 -24 13 -2 -3 12 -8 22 -12 22 -11 0 -8 44 3 52 8 5 8 8 0 8 -6 0 -14 -3 -17 -7z"/>
<path d="M378 365 c-2 -22 1 -40 9 -47 10 -8 13 -1 13 36 0 54 -16 62 -22 11z"/>
<path d="M602 359 c2 -24 8 -43 13 -41 15 3 12 75 -3 80 -10 3 -12 -7 -10 -39z m15 -16 c-3 -10 -5 -2 -5 17 0 19 2 27 5 18 2 -10 2 -26 0 -35z"/>
<path d="M240 298 c0 -4 7 -8 15 -8 8 0 15 4 15 8 0 5 -7 9 -15 9 -8 0 -15 -4 -15 -9z"/>
<path d="M415 290 c8 -13 162 -13 170 0 4 6 -27 10 -85 10 -58 0 -89 -4 -85 -10z"/>
</g>
</g>
  <g id="id15:id15" transform="matrix(1.25,0,0,1.25,0.0,0.0)"><g transform="translate(0.000000,48.000000) scale(0.040000,-0.040000)" fill="#004980" stroke="none">
<path d="M216 777 c3 -10 9 -15 12 -12 3 3 0 11 -7 18 -10 9 -11 8 -5 -6z"/>
<path d="M451 604 c0 -11 3 -14 6 -6 3 7 2 16 -1 19 -3 4 -6 -2 -5 -13z"/>
<path d="M215 420 c-3 -5 -1 -10 4 -10 6 0 11 5 11 10 0 6 -2 10 -4 10 -3 0 -8 -4 -11 -10z"/>
<path d="M612 360 c0 -19 2 -27 5 -17 2 9 2 25 0 35 -3 9 -5 1 -5 -18z"/>
</g>
</g>
</svg>
